<svg xmlns="http://www.w3.org/2000/svg" width="14" height="12.999" viewBox="0 0 14 12.999">
  <path id="Shape_246" data-name="Shape 246" d="M416.115,1606.334l-2.431-3.135a.861.861,0,0,0,.066-.332.875.875,0,1,0-.875.867.958.958,0,0,0,.115-.007l2.022,2.607h-6.023l2.022-2.607a.955.955,0,0,0,.114.007.866.866,0,1,0-.875-.867.861.861,0,0,0,.066.332l-2.432,3.135H405v1.733h.875l.875,6.934h10.5l.875-6.934H419v-1.733Zm-6.74,6.934h-1.75v-1.734h1.75Zm0-3.467h-1.75v-1.733h1.75Zm3.5,3.467h-1.75v-1.734h1.75Zm0-3.467h-1.75v-1.733h1.75Zm3.5,3.467h-1.75v-1.734h1.75Zm0-3.467h-1.75v-1.733h1.75Z" transform="translate(-405 -1602.001)" fill="#fff"/>
</svg>
