<svg xmlns="http://www.w3.org/2000/svg" width="30" height="30" viewBox="0 0 30 30">
  <g id="Search_Icon" data-name="Search Icon" transform="translate(-1515 -50)">
    <g id="Ellipse_2" data-name="Ellipse 2" transform="translate(1515 50)" fill="#2c3e50" stroke="#fff" stroke-linejoin="round" stroke-width="1">
      <circle cx="15" cy="15" r="15" stroke="none"/>
      <circle cx="15" cy="15" r="14.5" fill="none"/>
    </g>
    <path id="Shape_253" data-name="Shape 253" d="M1536.566,69.914l-3.316-2.82a1.476,1.476,0,0,0-1.006-.437,5.254,5.254,0,1,0-.588.587,1.478,1.478,0,0,0,.436,1.006l2.82,3.317a1.176,1.176,0,1,0,1.653-1.653Zm-8.316-3.164a3.5,3.5,0,1,1,3.5-3.5A3.5,3.5,0,0,1,1528.25,66.75Z" fill="#fff"/>
  </g>
</svg>
